# xmcd CD database file
#
# Track frame offsets:
#	150
#	23459
#	50350
#	80092
#	114921
#	159281
#	173823
#	222711
#	257817
#
# Disc length: 3651 seconds
#
# Revision: 0
# Processed by: cddbd v1.5.2PL0 Copyright (c) Steve Scherf et al.
# Submitted via: CDex 1.70beta2
#
DISCID=6f0e4109
DTITLE=The Fabulous Bolt Ons - The Beenie Weenie Incident
DYEAR=2007
DGENRE=Blues
TTITLE0=The Beenie Weenie Incident
TTITLE1=Balkin Music
TTITLE2=Allen's Dream
TTITLE3=L.A. Song
TTITLE4=Job's Blues
TTITLE5=Shorty Shroty
TTITLE6=I Just Wanna Make Love To You
TTITLE7=Turn On Your Love Light
TTITLE8=Crystal Love
EXTD=YEAR: 2007
EXTT0=
EXTT1=
EXTT2=
EXTT3=
EXTT4=
EXTT5=
EXTT6=
EXTT7=
EXTT8=
PLAYORDER=
